<?xml version="1.0" encoding="UTF-8"?>
<svg version="1.1" xmlns="http://www.w3.org/2000/svg" width="390" height="396">
<path d="M0 0 C0.79514008 -0.0033284 1.59028015 -0.0066568 2.40951538 -0.01008606 C4.08176096 -0.01511191 5.75401641 -0.01749574 7.42626953 -0.01733398 C9.9340953 -0.01950798 12.44147117 -0.03767612 14.94921875 -0.05664062 C67.386253 -0.24701229 114.34064559 23.08068732 151.3359375 59.16796875 C178.31016837 86.40536285 195.67595346 122.92967347 203.3359375 160.16796875 C203.53171387 161.07119873 203.72749023 161.97442871 203.92919922 162.9050293 C205.89573249 173.42098265 205.70809036 184.06740876 205.70654297 194.72973633 C205.71088755 198.06709967 205.74722034 201.40310629 205.78515625 204.74023438 C205.88388852 223.34416643 203.47648741 241.06601229 197.8984375 258.85546875 C197.56553711 259.92087891 197.23263672 260.98628906 196.88964844 262.08398438 C190.41476626 281.83727585 180.79042268 300.5310072 168.3359375 317.16796875 C167.5948877 318.16497803 167.5948877 318.16497803 166.83886719 319.18212891 C150.18278597 341.29154247 129.6537568 359.89096183 105.3359375 373.16796875 C104.41143799 373.67553711 104.41143799 373.67553711 103.46826172 374.19335938 C85.72655434 383.80134587 67.07388598 390.15246791 47.3359375 394.16796875 C46.10211586 394.42740265 46.10211586 394.42740265 44.84336853 394.69207764 C38.20869212 396.00696431 31.85262141 396.48837347 25.09765625 396.50390625 C24.05559525 396.51056305 23.01353424 396.51721985 21.93989563 396.52407837 C19.74404646 396.5341405 17.54816712 396.5388974 15.35229492 396.53857422 C12.06960584 396.5429078 8.78830802 396.57918877 5.50585938 396.6171875 C-35.60156635 396.83698537 -73.89176236 382.63411503 -106.6640625 358.16796875 C-107.30682129 357.72791504 -107.94958008 357.28786133 -108.61181641 356.83447266 C-110.32812094 355.65798399 -112.00015739 354.4174673 -113.6640625 353.16796875 C-113.6640625 352.50796875 -113.6640625 351.84796875 -113.6640625 351.16796875 C-114.52064453 350.78511719 -114.52064453 350.78511719 -115.39453125 350.39453125 C-121.91347771 346.87138291 -127.14563752 340.87778011 -131.87109375 335.265625 C-133.10273975 333.82467968 -134.37385093 332.41683342 -135.67578125 331.0390625 C-165.52447139 299.36836973 -184.46195812 252.92315671 -184.90234375 209.41796875 C-184.91218292 208.61049194 -184.92202209 207.80301514 -184.93215942 206.97106934 C-185.48480432 149.81101443 -168.14336856 98.518422 -127.6640625 57.16796875 C-126.92027344 56.37390625 -126.17648438 55.57984375 -125.41015625 54.76171875 C-119.08738883 48.14784786 -111.95304303 42.66012054 -104.6640625 37.16796875 C-103.87773438 36.56339844 -103.09140625 35.95882812 -102.28125 35.3359375 C-73.53577724 14.16319681 -35.92076249 0.0541869 0 0 Z " fill="#29302B" transform="translate(184.6640625,-0.16796875)"/>
<path d="M0 0 C0.79514008 -0.0033284 1.59028015 -0.0066568 2.40951538 -0.01008606 C4.08176096 -0.01511191 5.75401641 -0.01749574 7.42626953 -0.01733398 C9.9340953 -0.01950798 12.44147117 -0.03767612 14.94921875 -0.05664062 C67.386253 -0.24701229 114.34064559 23.08068732 151.3359375 59.16796875 C178.31016837 86.40536285 195.67595346 122.92967347 203.3359375 160.16796875 C203.53171387 161.07119873 203.72749023 161.97442871 203.92919922 162.9050293 C205.89573249 173.42098265 205.70809036 184.06740876 205.70654297 194.72973633 C205.71088755 198.06709967 205.74722034 201.40310629 205.78515625 204.74023438 C205.88388852 223.34416643 203.47648741 241.06601229 197.8984375 258.85546875 C197.56553711 259.92087891 197.23263672 260.98628906 196.88964844 262.08398438 C190.41476626 281.83727585 180.79042268 300.5310072 168.3359375 317.16796875 C167.5948877 318.16497803 167.5948877 318.16497803 166.83886719 319.18212891 C150.18278597 341.29154247 129.6537568 359.89096183 105.3359375 373.16796875 C104.41143799 373.67553711 104.41143799 373.67553711 103.46826172 374.19335938 C85.72655434 383.80134587 67.07388598 390.15246791 47.3359375 394.16796875 C46.10211586 394.42740265 46.10211586 394.42740265 44.84336853 394.69207764 C38.20869212 396.00696431 31.85262141 396.48837347 25.09765625 396.50390625 C24.05559525 396.51056305 23.01353424 396.51721985 21.93989563 396.52407837 C19.74404646 396.5341405 17.54816712 396.5388974 15.35229492 396.53857422 C12.06960584 396.5429078 8.78830802 396.57918877 5.50585938 396.6171875 C-35.60156635 396.83698537 -73.89176236 382.63411503 -106.6640625 358.16796875 C-107.30682129 357.72791504 -107.94958008 357.28786133 -108.61181641 356.83447266 C-110.32812094 355.65798399 -112.00015739 354.4174673 -113.6640625 353.16796875 C-113.6640625 352.50796875 -113.6640625 351.84796875 -113.6640625 351.16796875 C-114.52064453 350.78511719 -114.52064453 350.78511719 -115.39453125 350.39453125 C-121.91347771 346.87138291 -127.14563752 340.87778011 -131.87109375 335.265625 C-133.10273975 333.82467968 -134.37385093 332.41683342 -135.67578125 331.0390625 C-165.52447139 299.36836973 -184.46195812 252.92315671 -184.90234375 209.41796875 C-184.91218292 208.61049194 -184.92202209 207.80301514 -184.93215942 206.97106934 C-185.48480432 149.81101443 -168.14336856 98.518422 -127.6640625 57.16796875 C-126.92027344 56.37390625 -126.17648438 55.57984375 -125.41015625 54.76171875 C-119.08738883 48.14784786 -111.95304303 42.66012054 -104.6640625 37.16796875 C-103.87773438 36.56339844 -103.09140625 35.95882812 -102.28125 35.3359375 C-73.53577724 14.16319681 -35.92076249 0.0541869 0 0 Z M-34.6640625 17.16796875 C-36.05117579 17.48575845 -37.43911457 17.79998269 -38.828125 18.109375 C-50.03622751 20.78539948 -61.34098602 25.00643051 -71.6640625 30.16796875 C-71.6640625 30.82796875 -71.6640625 31.48796875 -71.6640625 32.16796875 C-72.68628906 32.42835937 -73.70851563 32.68875 -74.76171875 32.95703125 C-92.14545454 37.95621851 -107.94625541 52.86600276 -120.6640625 65.16796875 C-121.41381348 65.87904785 -121.41381348 65.87904785 -122.17871094 66.60449219 C-134.86698121 78.64909625 -144.47305694 92.34197788 -153.6640625 107.16796875 C-154.20160156 108.03421875 -154.73914063 108.90046875 -155.29296875 109.79296875 C-163.44246243 123.69053791 -168.49393358 141.00835758 -172.0234375 156.6875 C-172.6640625 159.16796875 -172.6640625 159.16796875 -173.671875 161.48828125 C-178.31930555 174.04000314 -176.87386531 189.69325774 -176.9140625 202.91796875 C-176.91923889 203.70986603 -176.92441528 204.50176331 -176.92974854 205.31765747 C-176.94159001 207.61689726 -176.93823131 209.91559808 -176.9296875 212.21484375 C-176.93364532 212.89761887 -176.93760315 213.58039398 -176.94168091 214.28385925 C-176.89482165 219.23275148 -175.96663544 223.4330085 -174.6640625 228.16796875 C-174.45581795 229.62094779 -174.27973533 231.07970743 -174.1640625 232.54296875 C-173.37324226 240.35734502 -171.79275993 247.3787979 -168.72265625 254.62109375 C-167.66224706 257.17233652 -166.75172142 259.74384888 -165.8515625 262.35546875 C-163.92309674 267.75517287 -161.53653849 272.88773934 -159.0378418 278.04174805 C-157.59303992 281.04567718 -156.28231801 283.87884942 -155.6640625 287.16796875 C-155.0040625 287.16796875 -154.3440625 287.16796875 -153.6640625 287.16796875 C-153.39464844 287.88082031 -153.12523437 288.59367187 -152.84765625 289.328125 C-147.34152893 302.53919615 -137.74567662 313.818439 -128.26953125 324.375 C-127.1489479 325.6264544 -126.04880259 326.8963799 -124.96484375 328.1796875 C-118.63937295 335.64232159 -111.22750908 341.6777439 -103.4765625 347.60546875 C-102.74405273 348.1660498 -102.01154297 348.72663086 -101.25683594 349.30419922 C-94.96880074 354.0537308 -88.47814872 358.21579874 -81.6640625 362.16796875 C-80.82359375 362.69132812 -79.983125 363.2146875 -79.1171875 363.75390625 C-76.67806384 365.15989792 -74.29715854 366.18055773 -71.6640625 367.16796875 C-69.05278602 368.14719743 -66.77902437 369.09400727 -64.4296875 370.60546875 C-60.60368897 372.76704984 -56.60922448 373.9074506 -52.4140625 375.16796875 C-50.78363074 375.66723972 -49.15342143 376.16723769 -47.5234375 376.66796875 C-46.31880859 377.03462646 -46.31880859 377.03462646 -45.08984375 377.40869141 C-41.9467234 378.3924982 -38.83678709 379.46492569 -35.72949219 380.55615234 C-32.41893593 381.53679702 -29.0909183 381.80080563 -25.6640625 382.16796875 C-25.3340625 382.49796875 -25.0040625 382.82796875 -24.6640625 383.16796875 C-0.49291137 386.79496514 24.88895903 386.91859234 48.78759766 381.70800781 C53.28359976 380.75522408 57.81092781 379.96951415 62.3359375 379.16796875 C62.3359375 378.50796875 62.3359375 377.84796875 62.3359375 377.16796875 C63.5734375 376.92046875 64.8109375 376.67296875 66.0859375 376.41796875 C92.44856891 370.37823276 116.32066167 354.29878212 136.03125 336.24609375 C137.94346832 334.52185621 139.89116513 332.90248669 141.8984375 331.29296875 C146.71122944 327.18695045 150.43684307 322.11753236 154.3359375 317.16796875 C155.27107717 316.00956158 156.20731186 314.8520377 157.14453125 313.6953125 C166.5873635 303.37356405 166.5873635 303.37356405 171.3359375 291.16796875 C171.9959375 291.16796875 172.6559375 291.16796875 173.3359375 291.16796875 C175.09141533 287.54559731 176.83928624 283.91960342 178.5859375 280.29296875 C179.07707031 279.27976562 179.56820313 278.2665625 180.07421875 277.22265625 C186.13491967 264.65782444 186.13491967 264.65782444 189.84375 251.2734375 C190.3359375 249.16796875 190.3359375 249.16796875 191.29980469 246.82958984 C204.62921496 212.58896055 197.57456708 162.96958358 184.546875 129.83203125 C183.38422807 127.14037678 183.38422807 127.14037678 181.82421875 124.6484375 C180.30121112 122.11009144 179.21487386 119.61349382 178.1484375 116.85546875 C177.80425781 115.97246094 177.46007812 115.08945313 177.10546875 114.1796875 C176.85152344 113.51582031 176.59757812 112.85195312 176.3359375 112.16796875 C175.6759375 112.16796875 175.0159375 112.16796875 174.3359375 112.16796875 C174.25859375 111.49378906 174.18125 110.81960937 174.1015625 110.125 C173.1022271 106.26532195 171.2018907 103.18670108 169.0859375 99.85546875 C168.64193604 99.15542725 168.19793457 98.45538574 167.74047852 97.73413086 C152.62372576 74.42967993 132.39762853 55.18665982 108.77734375 40.68359375 C106.40395891 39.21019644 104.12573148 37.64218994 101.8359375 36.04296875 C96.95334613 32.76165734 91.73759406 30.46058024 86.3359375 28.16796875 C85.1603125 27.65234375 83.9846875 27.13671875 82.7734375 26.60546875 C81.6390625 26.13109375 80.5046875 25.65671875 79.3359375 25.16796875 C78.129375 24.63816406 78.129375 24.63816406 76.8984375 24.09765625 C72.22216895 22.10745862 68.52556264 20.62169242 63.3359375 21.16796875 C63.3359375 20.50796875 63.3359375 19.84796875 63.3359375 19.16796875 C62.69527344 19.04679687 62.05460938 18.925625 61.39453125 18.80078125 C60.09708984 18.54941406 60.09708984 18.54941406 58.7734375 18.29296875 C57.92652344 18.13054688 57.07960937 17.968125 56.20703125 17.80078125 C54.14495632 17.3462831 52.10210435 16.80107352 50.078125 16.19921875 C22.92982236 8.71784934 -7.66429716 10.27984785 -34.6640625 17.16796875 Z " fill="#234025" transform="translate(184.6640625,-0.16796875)"/>
<path d="M0 0 C1.47726562 -0.02416992 1.47726562 -0.02416992 2.984375 -0.04882812 C13.72060559 -0.05589143 22.71126481 1.95469297 30.75 9.3125 C31.575 10.034375 32.4 10.75625 33.25 11.5 C36.0316391 16.71557331 35.63909258 22.19330781 34.04296875 27.79296875 C27.0713213 43.79903573 9.74533046 55.9822797 -4.25 65.3125 C-6.4375 64.9375 -6.4375 64.9375 -8.25 64.3125 C-8.25 63.3225 -8.25 62.3325 -8.25 61.3125 C-6.1328125 59.59375 -6.1328125 59.59375 -3.375 57.8125 C-0.16704488 55.7287001 1.60449033 54.53076451 3.75 51.3125 C5.41131721 50.30363782 7.07893875 49.30513895 8.75 48.3125 C10.76711487 46.66088414 12.70612717 45.00735155 14.625 43.25 C15.14876221 42.77046875 15.67252441 42.2909375 16.2121582 41.796875 C22.58518166 35.79688257 28.77068182 28.98279907 29.0625 19.875 C29.02081755 16.66024133 28.96973564 15.62175757 27.0625 12.9375 C12.47188117 2.68463271 -9.6688222 6.65809221 -26.421875 9.47265625 C-27.64680664 9.68752686 -27.64680664 9.68752686 -28.89648438 9.90673828 C-31.07855426 10.28294162 -33.26185858 10.61616243 -35.453125 10.93359375 C-56.31583537 14.08647117 -78.67066191 20.15298507 -97.765625 29.2421875 C-102.18620359 31.1466506 -106.7601407 32.65014658 -111.31274414 34.20703125 C-114.15871486 35.18690321 -116.88678254 36.12814425 -119.57421875 37.4921875 C-121.25 38.3125 -121.25 38.3125 -124.25 38.3125 C-124.25 38.9725 -124.25 39.6325 -124.25 40.3125 C-127.22 40.9725 -130.19 41.6325 -133.25 42.3125 C-133.25 42.9725 -133.25 43.6325 -133.25 44.3125 C-136.55 45.6325 -139.85 46.9525 -143.25 48.3125 C-141.10716274 52.59817451 -140.64916028 52.96004756 -136.5625 54.8125 C-133.55003667 56.21175498 -130.86113472 57.56411871 -128.0625 59.375 C-123.9210362 61.83399413 -119.21809465 62.79378883 -114.5793457 63.91821289 C-109.53218941 65.1500634 -109.53218941 65.1500634 -107.45678711 66.34472656 C-104.43472315 67.67003484 -101.80820295 67.63991571 -98.515625 67.7265625 C-97.22011719 67.76523438 -95.92460937 67.80390625 -94.58984375 67.84375 C-93.22656716 67.87520267 -91.86328582 67.90645007 -90.5 67.9375 C-89.12106972 67.97570469 -87.74216266 68.01475787 -86.36328125 68.0546875 C-82.99232282 68.14898004 -79.62137022 68.2345822 -76.25 68.3125 C-77.24 68.9725 -78.23 69.6325 -79.25 70.3125 C-79.25 71.3025 -79.25 72.2925 -79.25 73.3125 C-74.96 73.6425 -70.67 73.9725 -66.25 74.3125 C-66.25 72.0025 -66.25 69.6925 -66.25 67.3125 C-70.705 67.8075 -70.705 67.8075 -75.25 68.3125 C-74.26 67.9825 -73.27 67.6525 -72.25 67.3125 C-72.25 66.6525 -72.25 65.9925 -72.25 65.3125 C-68.57589215 64.13678549 -65.08070817 64.23883254 -61.25 64.3125 C-61.91 64.9725 -62.57 65.6325 -63.25 66.3125 C-63.70811675 68.28485333 -63.70811675 68.28485333 -63.875 70.4375 C-64.060625 72.355625 -64.060625 72.355625 -64.25 74.3125 C-63.61191406 74.30089844 -62.97382813 74.28929687 -62.31640625 74.27734375 C-61.49011719 74.26832031 -60.66382813 74.25929688 -59.8125 74.25 C-58.98878906 74.23839844 -58.16507813 74.22679687 -57.31640625 74.21484375 C-55.25 74.3125 -55.25 74.3125 -54.25 75.3125 C-52.76562191 75.53873521 -51.27222575 75.70662965 -49.77734375 75.84765625 C-48.96773193 75.92636963 -48.15812012 76.00508301 -47.32397461 76.08618164 C-45.77141968 76.22914673 -45.77141968 76.22914673 -44.1875 76.375 C-39.2684375 76.8390625 -39.2684375 76.8390625 -34.25 77.3125 C-34.25 68.4025 -34.25 59.4925 -34.25 50.3125 C-36.725 51.7975 -36.725 51.7975 -39.25 53.3125 C-39.91 52.9825 -40.57 52.6525 -41.25 52.3125 C-40.445625 51.466875 -39.64125 50.62125 -38.8125 49.75 C-36.03371338 46.4609842 -35.50882224 43.62620396 -35.25 39.3125 C-32.94 39.3125 -30.63 39.3125 -28.25 39.3125 C-28.31574219 40.25996094 -28.31574219 40.25996094 -28.3828125 41.2265625 C-28.35178411 51.99341538 -21.95362225 59.53706672 -14.69140625 66.91015625 C-9.74887242 71.38197257 -5.99549369 74.41310084 0.75 75.3125 C0.75 74.6525 0.75 73.9925 0.75 73.3125 C2.07 73.3125 3.39 73.3125 4.75 73.3125 C4.75 74.6325 4.75 75.9525 4.75 77.3125 C4.09 77.3125 3.43 77.3125 2.75 77.3125 C4.22563225 80.2637645 6.25079352 80.38173915 9.3125 81.4375 C10.32441406 81.79070312 11.33632813 82.14390625 12.37890625 82.5078125 C13.55259766 82.90613281 13.55259766 82.90613281 14.75 83.3125 C14.75 82.6525 14.75 81.9925 14.75 81.3125 C16.4 81.3125 18.05 81.3125 19.75 81.3125 C19.42 82.6325 19.09 83.9525 18.75 85.3125 C19.905 85.415625 21.06 85.51875 22.25 85.625 C26.76171519 86.17285113 30.55605749 87.5899879 34.75 89.3125 C34.75 88.3225 34.75 87.3325 34.75 86.3125 C35.74 86.3125 36.73 86.3125 37.75 86.3125 C37.42 87.6325 37.09 88.9525 36.75 90.3125 C37.41644531 90.53164062 38.08289063 90.75078125 38.76953125 90.9765625 C45.86802003 93.41883976 52.26232501 96.54789169 58.75 100.3125 C55.35270933 101.49083956 53.73480248 101.16917526 50.5 99.6875 C36.968642 93.94511753 21.56033 88.95403341 6.75 89.3125 C6.75 88.6525 6.75 87.9925 6.75 87.3125 C4.84541016 87.23902344 4.84541016 87.23902344 2.90234375 87.1640625 C-7.60428621 86.72065404 -17.84909394 85.87263591 -28.25 84.3125 C-28.25 90.2525 -28.25 96.1925 -28.25 102.3125 C-30.23 102.3125 -32.21 102.3125 -34.25 102.3125 C-34.25 95.7125 -34.25 89.1125 -34.25 82.3125 C-53.6532139 81.46502105 -73.00783796 81.15184695 -92.42626953 81.18212891 C-96.15945955 81.18787828 -99.89257903 81.18440891 -103.62576675 81.17867661 C-118.5323702 81.15938738 -133.37252485 81.2534255 -148.25 82.3125 C-148.25 88.9125 -148.25 95.5125 -148.25 102.3125 C-150.23 102.3125 -152.21 102.3125 -154.25 102.3125 C-154.25 96.3725 -154.25 90.4325 -154.25 84.3125 C-167.88435042 85.21394466 -181.00759343 87.46829451 -194.375 90.1875 C-195.22965851 90.35822021 -196.08431702 90.52894043 -196.96487427 90.70483398 C-212.59679805 93.12398913 -212.59679805 93.12398913 -225.7578125 100.86328125 C-230.22908604 108.09500712 -230.22908604 108.09500712 -230.25 116.3125 C-228.5989347 119.15671796 -226.75273956 121.7282968 -223.58203125 122.9609375 C-199.02523141 126.66296763 -172.11054824 118.54327431 -149.25 110.3125 C-148.58484375 110.0738623 -147.9196875 109.83522461 -147.234375 109.58935547 C-139.60537188 106.83782356 -132.13412094 103.90937875 -124.78125 100.4765625 C-112.68683589 94.91462515 -112.68683589 94.91462515 -107.25 94.3125 C-106.26 94.9725 -105.27 95.6325 -104.25 96.3125 C-104.58 97.3025 -104.91 98.2925 -105.25 99.3125 C-107.5234375 100.41796875 -107.5234375 100.41796875 -110.625 101.5 C-116.2932981 103.56063676 -121.83392389 105.80699466 -127.375 108.1875 C-156.70451975 120.62970541 -193.82594345 135.94174405 -226.26171875 128.2109375 C-229.92576474 126.55527821 -232.20363286 123.70297544 -234.25 120.3125 C-236.10966547 114.7335036 -236.26385245 108.46693645 -233.75 103.125 C-233.255 102.526875 -232.76 101.92875 -232.25 101.3125 C-233.17232422 101.65474609 -233.17232422 101.65474609 -234.11328125 102.00390625 C-234.92152344 102.29136719 -235.72976562 102.57882813 -236.5625 102.875 C-237.76326172 103.31005859 -237.76326172 103.31005859 -238.98828125 103.75390625 C-241.25 104.3125 -241.25 104.3125 -244.25 103.3125 C-242.0652247 102.03678516 -239.87738381 100.76689327 -237.6875 99.5 C-237.07841797 99.14357422 -236.46933594 98.78714844 -235.84179688 98.41992188 C-232.79211371 96.66110989 -229.80135329 95.08620855 -226.52734375 93.78515625 C-223.31789174 92.34300678 -221.69532889 91.14064321 -219.375 88.5625 C-208.02840204 76.67558785 -193.24045237 68.30701563 -179.0625 60.25 C-178.05815918 59.67749512 -177.05381836 59.10499023 -176.01904297 58.51513672 C-175.0704541 57.98291504 -174.12186523 57.45069336 -173.14453125 56.90234375 C-171.87379761 56.18872681 -171.87379761 56.18872681 -170.57739258 55.46069336 C-168.44857755 54.41046604 -166.56857423 53.77527926 -164.25 53.3125 C-164.25 52.6525 -164.25 51.9925 -164.25 51.3125 C-163.61191406 51.10496094 -162.97382813 50.89742187 -162.31640625 50.68359375 C-159.76441497 49.73207126 -157.5315572 48.80627424 -155.25 47.3125 C-154.02732292 43.69073416 -154.02732292 43.69073416 -154.25 40.3125 C-152.27 40.3125 -150.29 40.3125 -148.25 40.3125 C-148.25 41.6325 -148.25 42.9525 -148.25 44.3125 C-147.755 43.879375 -147.26 43.44625 -146.75 43 C-142.10286561 39.86318429 -136.77545493 38.17585233 -131.25 37.3125 C-131.25 36.6525 -131.25 35.9925 -131.25 35.3125 C-130.57195312 35.07015625 -129.89390625 34.8278125 -129.1953125 34.578125 C-123.6973167 32.59823732 -118.24264663 30.54767805 -112.83203125 28.33984375 C-110.02730343 27.22389304 -107.20498197 26.1636797 -104.37670898 25.10913086 C-102.32252441 24.33966648 -100.27432051 23.55591191 -98.2265625 22.76953125 C-79.70753928 15.72609015 -60.84476991 9.98160305 -41.5625 5.4375 C-39.75688599 5.00824219 -39.75688599 5.00824219 -37.91479492 4.5703125 C-25.35618614 1.69720808 -12.89229519 -0.04286002 0 0 Z " fill="#A1EF78" transform="translate(285.25,138.6875)"/>
<path d="M0 0 C0.79796997 -0.0033284 1.59593994 -0.0066568 2.41809082 -0.01008606 C4.10228911 -0.01512568 5.7864973 -0.01749531 7.47070312 -0.01733398 C9.99627028 -0.01950123 12.52138601 -0.03763528 15.046875 -0.05664062 C25.06624987 -0.09120674 34.6380324 0.55534896 44.53125 2.16796875 C46.73944766 2.50219966 48.94775984 2.83567603 51.15625 3.16796875 C54.89873193 3.75502474 58.03012125 4.74340932 61.53125 6.16796875 C63.29564823 6.6110948 65.06728847 7.02599138 66.84375 7.41796875 C79.20447671 10.42421957 91.1916468 15.44799192 102.53125 21.16796875 C102.53125 21.82796875 102.53125 22.48796875 102.53125 23.16796875 C103.41425781 23.43351562 104.29726563 23.6990625 105.20703125 23.97265625 C124.91340918 31.05861588 145.32834126 50.29069684 158.53125 66.16796875 C159.29050781 67.039375 160.04976563 67.91078125 160.83203125 68.80859375 C174.08820912 84.22946629 185.47105626 102.0466107 192.53125 121.16796875 C192.83417969 121.96557617 193.13710938 122.76318359 193.44921875 123.58496094 C201.73848973 145.53882516 205.75814301 166.78107142 205.78125 190.23046875 C205.78258942 191.02877106 205.78392883 191.82707336 205.78530884 192.64956665 C205.77964225 208.24459247 205.5263991 224.1138713 200.28295898 238.9597168 C199.53911214 241.14487259 198.92834231 243.32692615 198.35546875 245.5625 C196.27196959 253.68968869 193.97177152 261.03705555 189.95703125 268.46484375 C187.7970203 272.55998781 186.15928786 276.83930337 184.53125 281.16796875 C183.87125 281.16796875 183.21125 281.16796875 182.53125 281.16796875 C182.30953125 281.98652344 182.0878125 282.80507813 181.859375 283.6484375 C180.20428592 288.03442356 177.89694778 291.60987483 175.28125 295.48046875 C174.49041016 296.65536865 174.49041016 296.65536865 173.68359375 297.85400391 C156.25968746 323.29107085 133.26178637 346.11658958 105.53125 360.16796875 C104.87125 360.16796875 104.21125 360.16796875 103.53125 360.16796875 C103.53125 360.82796875 103.53125 361.48796875 103.53125 362.16796875 C92.95391029 366.73545635 82.32200564 371.12669746 71.53125 375.16796875 C70.43103516 375.60109375 70.43103516 375.60109375 69.30859375 376.04296875 C62.41654476 378.59262849 55.13650769 379.62338602 47.90576172 380.77099609 C46.23067049 381.05103911 44.56054365 381.3616066 42.89501953 381.69384766 C34.25688408 383.34109271 25.7845337 383.48130006 17.03125 383.41796875 C16.28313049 383.41519928 15.53501099 383.41242981 14.76422119 383.40957642 C2.92855017 383.35825155 -8.74619034 382.91487071 -20.46875 381.16796875 C-21.15453125 381.0714502 -21.8403125 380.97493164 -22.546875 380.87548828 C-48.04646529 377.1709915 -73.57764099 366.10163875 -94.46875 351.16796875 C-95.34031738 350.55912842 -95.34031738 350.55912842 -96.22949219 349.93798828 C-105.66724842 343.3424811 -114.19916135 336.17228469 -122.46875 328.16796875 C-123.15582031 327.52085937 -123.84289062 326.87375 -124.55078125 326.20703125 C-132.08309925 318.96376383 -138.09194141 310.40247805 -144.21875 301.98046875 C-144.77385254 301.22016357 -145.32895508 300.4598584 -145.90087891 299.67651367 C-154.46875 287.79626786 -154.46875 287.79626786 -154.46875 284.16796875 C-155.12875 284.16796875 -155.78875 284.16796875 -156.46875 284.16796875 C-156.97278768 282.87787232 -157.47184926 281.58583086 -157.96875 280.29296875 C-158.2471875 279.57367188 -158.525625 278.854375 -158.8125 278.11328125 C-159.46875 276.16796875 -159.46875 276.16796875 -159.46875 274.16796875 C-160.12875 274.16796875 -160.78875 274.16796875 -161.46875 274.16796875 C-161.78328125 273.27335937 -162.0978125 272.37875 -162.421875 271.45703125 C-162.84984375 270.24789063 -163.2778125 269.03875 -163.71875 267.79296875 C-163.94691406 267.14666504 -164.17507812 266.50036133 -164.41015625 265.83447266 C-165.6524633 262.34612303 -166.9812078 258.93261409 -168.46875 255.54296875 C-170.41000062 250.73306843 -171.73993156 245.80797648 -173.03125 240.79296875 C-173.22912109 240.0457959 -173.42699219 239.29862305 -173.63085938 238.52880859 C-177.46650919 223.07544388 -178.99203805 207.53890551 -178.91479492 191.64868164 C-178.90621679 188.97009865 -178.93533245 186.29361302 -178.96679688 183.61523438 C-179.00594191 173.56169449 -178.0781404 164.44017712 -175.41381836 154.73486328 C-174.57053233 151.5521175 -174.00668671 148.4919537 -173.59375 145.23046875 C-171.89625011 134.33942964 -168.00902269 123.12680842 -162.64453125 113.50390625 C-161.61734983 111.46319365 -160.86233245 109.51579609 -160.10546875 107.3671875 C-158.53807657 103.10229604 -156.41682198 99.42000737 -153.96875 95.60546875 C-153.5344165 94.92145996 -153.10008301 94.23745117 -152.65258789 93.53271484 C-145.47111011 82.36494632 -137.69981512 71.73495327 -128.46875 62.16796875 C-127.87852051 61.54664063 -127.28829102 60.9253125 -126.68017578 60.28515625 C-94.60169516 26.63937446 -47.63727337 0.07086971 0 0 Z M-31.46875 10.16796875 C-32.85586329 10.48575845 -34.24380207 10.79998269 -35.6328125 11.109375 C-46.84091501 13.78539948 -58.14567352 18.00643051 -68.46875 23.16796875 C-68.46875 23.82796875 -68.46875 24.48796875 -68.46875 25.16796875 C-69.49097656 25.42835937 -70.51320313 25.68875 -71.56640625 25.95703125 C-88.95014204 30.95621851 -104.75094291 45.86600276 -117.46875 58.16796875 C-118.21850098 58.87904785 -118.21850098 58.87904785 -118.98339844 59.60449219 C-131.67166871 71.64909625 -141.27774444 85.34197788 -150.46875 100.16796875 C-151.00628906 101.03421875 -151.54382813 101.90046875 -152.09765625 102.79296875 C-160.24714993 116.69053791 -165.29862108 134.00835758 -168.828125 149.6875 C-169.46875 152.16796875 -169.46875 152.16796875 -170.4765625 154.48828125 C-175.12399305 167.04000314 -173.67855281 182.69325774 -173.71875 195.91796875 C-173.72392639 196.70986603 -173.72910278 197.50176331 -173.73443604 198.31765747 C-173.74627751 200.61689726 -173.74291881 202.91559808 -173.734375 205.21484375 C-173.73833282 205.89761887 -173.74229065 206.58039398 -173.74636841 207.28385925 C-173.69950915 212.23275148 -172.77132294 216.4330085 -171.46875 221.16796875 C-171.26050545 222.62094779 -171.08442283 224.07970743 -170.96875 225.54296875 C-170.17792976 233.35734502 -168.59744743 240.3787979 -165.52734375 247.62109375 C-164.46693456 250.17233652 -163.55640892 252.74384888 -162.65625 255.35546875 C-160.72778424 260.75517287 -158.34122599 265.88773934 -155.8425293 271.04174805 C-154.39772742 274.04567718 -153.08700551 276.87884942 -152.46875 280.16796875 C-151.80875 280.16796875 -151.14875 280.16796875 -150.46875 280.16796875 C-150.19933594 280.88082031 -149.92992187 281.59367187 -149.65234375 282.328125 C-144.14621643 295.53919615 -134.55036412 306.818439 -125.07421875 317.375 C-123.9536354 318.6264544 -122.85349009 319.8963799 -121.76953125 321.1796875 C-115.44406045 328.64232159 -108.03219658 334.6777439 -100.28125 340.60546875 C-99.54874023 341.1660498 -98.81623047 341.72663086 -98.06152344 342.30419922 C-91.77348824 347.0537308 -85.28283622 351.21579874 -78.46875 355.16796875 C-77.62828125 355.69132812 -76.7878125 356.2146875 -75.921875 356.75390625 C-73.48275134 358.15989792 -71.10184604 359.18055773 -68.46875 360.16796875 C-65.85747352 361.14719743 -63.58371187 362.09400727 -61.234375 363.60546875 C-57.40837647 365.76704984 -53.41391198 366.9074506 -49.21875 368.16796875 C-47.58831824 368.66723972 -45.95810893 369.16723769 -44.328125 369.66796875 C-43.12349609 370.03462646 -43.12349609 370.03462646 -41.89453125 370.40869141 C-38.7514109 371.3924982 -35.64147459 372.46492569 -32.53417969 373.55615234 C-29.22362343 374.53679702 -25.8956058 374.80080563 -22.46875 375.16796875 C-22.13875 375.49796875 -21.80875 375.82796875 -21.46875 376.16796875 C2.70240113 379.79496514 28.08427153 379.91859234 51.98291016 374.70800781 C56.47891226 373.75522408 61.00624031 372.96951415 65.53125 372.16796875 C65.53125 371.50796875 65.53125 370.84796875 65.53125 370.16796875 C66.76875 369.92046875 68.00625 369.67296875 69.28125 369.41796875 C95.64388141 363.37823276 119.51597417 347.29878212 139.2265625 329.24609375 C141.13878082 327.52185621 143.08647763 325.90248669 145.09375 324.29296875 C149.90654194 320.18695045 153.63215557 315.11753236 157.53125 310.16796875 C158.46638967 309.00956158 159.40262436 307.8520377 160.33984375 306.6953125 C169.782676 296.37356405 169.782676 296.37356405 174.53125 284.16796875 C175.19125 284.16796875 175.85125 284.16796875 176.53125 284.16796875 C178.28672783 280.54559731 180.03459874 276.91960342 181.78125 273.29296875 C182.27238281 272.27976562 182.76351563 271.2665625 183.26953125 270.22265625 C189.33023217 257.65782444 189.33023217 257.65782444 193.0390625 244.2734375 C193.53125 242.16796875 193.53125 242.16796875 194.49511719 239.82958984 C207.82452746 205.58896055 200.76987958 155.96958358 187.7421875 122.83203125 C186.57954057 120.14037678 186.57954057 120.14037678 185.01953125 117.6484375 C183.49652362 115.11009144 182.41018636 112.61349382 181.34375 109.85546875 C180.99957031 108.97246094 180.65539062 108.08945313 180.30078125 107.1796875 C180.04683594 106.51582031 179.79289062 105.85195312 179.53125 105.16796875 C178.87125 105.16796875 178.21125 105.16796875 177.53125 105.16796875 C177.45390625 104.49378906 177.3765625 103.81960937 177.296875 103.125 C176.2975396 99.26532195 174.3972032 96.18670108 172.28125 92.85546875 C171.83724854 92.15542725 171.39324707 91.45538574 170.93579102 90.73413086 C155.81903826 67.42967993 135.59294103 48.18665982 111.97265625 33.68359375 C109.59927141 32.21019644 107.32104398 30.64218994 105.03125 29.04296875 C100.14865863 25.76165734 94.93290656 23.46058024 89.53125 21.16796875 C88.355625 20.65234375 87.18 20.13671875 85.96875 19.60546875 C84.834375 19.13109375 83.7 18.65671875 82.53125 18.16796875 C81.3246875 17.63816406 81.3246875 17.63816406 80.09375 17.09765625 C75.41748145 15.10745862 71.72087514 13.62169242 66.53125 14.16796875 C66.53125 13.50796875 66.53125 12.84796875 66.53125 12.16796875 C65.89058594 12.04679687 65.24992188 11.925625 64.58984375 11.80078125 C63.29240234 11.54941406 63.29240234 11.54941406 61.96875 11.29296875 C61.12183594 11.13054688 60.27492187 10.968125 59.40234375 10.80078125 C57.34026882 10.3462831 55.29741685 9.80107352 53.2734375 9.19921875 C26.12513486 1.71784934 -4.46898466 3.27984785 -31.46875 10.16796875 Z " fill="#8CE76F" transform="translate(181.46875,6.83203125)"/>
<path d="M0 0 C1.47726562 -0.02416992 1.47726562 -0.02416992 2.984375 -0.04882812 C13.72060559 -0.05589143 22.71126481 1.95469297 30.75 9.3125 C31.575 10.034375 32.4 10.75625 33.25 11.5 C36.0316391 16.71557331 35.63909258 22.19330781 34.04296875 27.79296875 C27.0713213 43.79903573 9.74533046 55.9822797 -4.25 65.3125 C-6.4375 64.9375 -6.4375 64.9375 -8.25 64.3125 C-8.25 63.3225 -8.25 62.3325 -8.25 61.3125 C-6.1328125 59.59375 -6.1328125 59.59375 -3.375 57.8125 C-0.16704488 55.7287001 1.60449033 54.53076451 3.75 51.3125 C5.41131721 50.30363782 7.07893875 49.30513895 8.75 48.3125 C10.76711487 46.66088414 12.70612717 45.00735155 14.625 43.25 C15.14876221 42.77046875 15.67252441 42.2909375 16.2121582 41.796875 C22.58518166 35.79688257 28.77068182 28.98279907 29.0625 19.875 C29.02081755 16.66024133 28.96973564 15.62175757 27.0625 12.9375 C12.47188117 2.68463271 -9.6688222 6.65809221 -26.421875 9.47265625 C-27.64680664 9.68752686 -27.64680664 9.68752686 -28.89648438 9.90673828 C-31.07855426 10.28294162 -33.26185858 10.61616243 -35.453125 10.93359375 C-56.31583537 14.08647117 -78.67066191 20.15298507 -97.765625 29.2421875 C-102.18620359 31.1466506 -106.7601407 32.65014658 -111.31274414 34.20703125 C-114.15871486 35.18690321 -116.88678254 36.12814425 -119.57421875 37.4921875 C-121.25 38.3125 -121.25 38.3125 -124.25 38.3125 C-124.25 38.9725 -124.25 39.6325 -124.25 40.3125 C-124.91 40.3125 -125.57 40.3125 -126.25 40.3125 C-126.25 39.3225 -126.25 38.3325 -126.25 37.3125 C-127.9 37.3125 -129.55 37.3125 -131.25 37.3125 C-131.25 36.6525 -131.25 35.9925 -131.25 35.3125 C-130.57195312 35.07015625 -129.89390625 34.8278125 -129.1953125 34.578125 C-123.6973167 32.59823732 -118.24264663 30.54767805 -112.83203125 28.33984375 C-110.02730343 27.22389304 -107.20498197 26.1636797 -104.37670898 25.10913086 C-102.32252441 24.33966648 -100.27432051 23.55591191 -98.2265625 22.76953125 C-79.70753928 15.72609015 -60.84476991 9.98160305 -41.5625 5.4375 C-40.35875732 5.15132812 -39.15501465 4.86515625 -37.91479492 4.5703125 C-25.35618614 1.69720808 -12.89229519 -0.04286002 0 0 Z " fill="#99E371" transform="translate(285.25,138.6875)"/>
<path d="M0 0 C2.56695636 0.39491636 4.67123994 0.83561997 7 2 C6.67 2.99 6.34 3.98 6 5 C3.7265625 6.10546875 3.7265625 6.10546875 0.625 7.1875 C-5.0432981 9.24813676 -10.58392389 11.49449466 -16.125 13.875 C-87.67849469 44.22951267 -87.67849469 44.22951267 -117 33 C-117.33 32.34 -117.66 31.68 -118 31 C-116.35 31 -114.7 31 -113 31 C-112.67 30.34 -112.34 29.68 -112 29 C-110.16501953 29.05220703 -110.16501953 29.05220703 -108.29296875 29.10546875 C-83.98280823 29.5851464 -60.80630509 24.21124446 -38 16 C-37.33484375 15.7613623 -36.6696875 15.52272461 -35.984375 15.27685547 C-28.36064075 12.52722387 -20.8871999 9.61179086 -13.546875 6.1640625 C-10.05133936 4.56640971 -6.48444993 3.17698073 -2.8984375 1.796875 C-1.02531143 1.1514179 -1.02531143 1.1514179 0 0 Z " fill="#6EC05D" transform="translate(174,233)"/>
<path d="M0 0 C0.66 0.33 1.32 0.66 2 1 C2.66 0.67 3.32 0.34 4 0 C4.99 0 5.98 0 7 0 C7 8.91 7 17.82 7 27 C3.720625 26.855625 0.44125 26.71125 -2.9375 26.5625 C-4.49005493 26.49784546 -4.49005493 26.49784546 -6.07397461 26.43188477 C-6.88358643 26.39377686 -7.69319824 26.35566895 -8.52734375 26.31640625 C-9.35999756 26.27974854 -10.19265137 26.24309082 -11.05053711 26.20532227 C-13 26 -13 26 -14 25 C-15.51469448 24.76807135 -17.03754562 24.58784762 -18.5625 24.4375 C-19.38878906 24.35371094 -20.21507812 24.26992187 -21.06640625 24.18359375 C-22.02353516 24.09271484 -22.02353516 24.09271484 -23 24 C-23 20.33333333 -23 16.66666667 -23 13 C-21.37191406 12.20335937 -21.37191406 12.20335937 -19.7109375 11.390625 C-18.26551761 10.6773009 -16.82021111 9.96374699 -15.375 9.25 C-14.66214844 8.90195313 -13.94929687 8.55390625 -13.21484375 8.1953125 C-6.14778496 4.7890704 -6.14778496 4.7890704 0 0 Z " fill="#89CD66" transform="translate(244,189)"/>
<path d="M0 0 C-6.10308104 13.75564898 -20.9250795 21.2296907 -34 27 C-39.58501206 29.10780503 -45.12277604 30.92268672 -51 32 C-40.2201749 20.14219238 -23.98202195 12.12853247 -10.125 4.375 C-9.34576172 3.93696045 -8.56652344 3.4989209 -7.76367188 3.04760742 C-6.67795898 2.44783081 -6.67795898 2.44783081 -5.5703125 1.8359375 C-4.92852051 1.48063965 -4.28672852 1.1253418 -3.62548828 0.75927734 C-2 0 -2 0 0 0 Z " fill="#3F5F3E" transform="translate(126,195)"/>
<path d="M0 0 C1.98 0.99 1.98 0.99 4 2 C4.77859375 2.37253906 5.5571875 2.74507812 6.359375 3.12890625 C9.26826325 4.87328858 11.017914 6.21593791 13 9 C14.14476797 14.57749558 13.51240237 20.37622586 13 26 C8.71 26 4.42 26 0 26 C0 17.42 0 8.84 0 0 Z " fill="#405C3E" transform="translate(137,189)"/>
<path d="M0 0 C0.66 0 1.32 0 2 0 C2 8.58 2 17.16 2 26 C-1.96 25.67 -5.92 25.34 -10 25 C-11.37958673 9.85860989 -11.37958673 9.85860989 -8.03125 5.34765625 C-5.75606951 3.64487085 -3.53908955 2.26714488 -1 1 C-0.67 0.67 -0.34 0.34 0 0 Z " fill="#3A4D38" transform="translate(248,189)"/>
<path d="M0 0 C0.33 0 0.66 0 1 0 C1.0093457 0.89904053 1.01869141 1.79808105 1.02832031 2.72436523 C1.33382816 26.24397657 2.50024467 49.04812295 9.51269531 71.69921875 C11.09209877 76.81580245 11.09209877 76.81580245 10 79 C5.62764937 75.50026287 4.7092468 71.78436139 3.4375 66.5625 C3.12389526 65.30058838 3.12389526 65.30058838 2.80395508 64.01318359 C-0.74132244 49.19395095 -2.25462586 34.80901469 -2.3125 19.5625 C-2.31805908 18.31162598 -2.32361816 17.06075195 -2.3293457 15.77197266 C-2.28352497 10.02832463 -2.03751083 5.42609566 0 0 Z " fill="#346132" transform="translate(2,183)"/>
<path d="M0 0 C-0.66 0.66 -1.32 1.32 -2 2 C-1.938125 2.70125 -1.87625 3.4025 -1.8125 4.125 C-2.02228369 7.34168329 -2.70572684 8.28159678 -4.5 10.875 C-7.05306479 14.75565849 -7.87350534 17.28307117 -7 22 C-5.18574468 24.96150501 -3.15812942 27.42093529 0 29 C-0.33 29.99 -0.66 30.98 -1 32 C-4.88410563 31.73517462 -6.5462048 31.46605993 -9.3125 28.625 C-12.68375656 23.38082312 -12.53087054 18.06077198 -12 12 C-10.5 8.8125 -10.5 8.8125 -9 7 C-9.61488281 7.22816406 -10.22976562 7.45632812 -10.86328125 7.69140625 C-11.67152344 7.97886719 -12.47976562 8.26632813 -13.3125 8.5625 C-14.51326172 8.99755859 -14.51326172 8.99755859 -15.73828125 9.44140625 C-18 10 -18 10 -21 9 C-18.77312024 7.70425129 -16.54366825 6.41332692 -14.3125 5.125 C-13.68666016 4.76019531 -13.06082031 4.39539063 -12.41601562 4.01953125 C-2.91012774 -1.45506387 -2.91012774 -1.45506387 0 0 Z " fill="#8FE36E" transform="translate(62,233)"/>
<path d="M0 0 C0.66 0 1.32 0 2 0 C2.02887512 3.64581687 2.04675585 7.29160463 2.0625 10.9375 C2.07087891 11.97841797 2.07925781 13.01933594 2.08789062 14.09179688 C2.09111328 15.08115234 2.09433594 16.07050781 2.09765625 17.08984375 C2.10289307 18.00628662 2.10812988 18.92272949 2.11352539 19.86694336 C2 22 2 22 1 23 C-1.01964199 23.07244053 -3.04167124 23.08377188 -5.0625 23.0625 C-6.16722656 23.05347656 -7.27195312 23.04445312 -8.41015625 23.03515625 C-9.69212891 23.01775391 -9.69212891 23.01775391 -11 23 C-11 20.03 -11 17.06 -11 14 C-10.34 14 -9.68 14 -9 14 C-8.7525 13.443125 -8.505 12.88625 -8.25 12.3125 C-6.78224216 9.597148 -4.93395084 7.40278741 -3 5 C-2.46375 4.071875 -1.9275 3.14375 -1.375 2.1875 C-0.92125 1.465625 -0.4675 0.74375 0 0 Z " fill="#496645" transform="translate(129,194)"/>
<path d="M0 0 C12.46530612 12.46530612 12.46530612 12.46530612 13.51171875 17.42578125 C13.5 19.625 13.5 19.625 13 23 C8.71 22.67 4.42 22.34 0 22 C0 14.74 0 7.48 0 0 Z " fill="#3C533B" transform="translate(257,194)"/>
<path d="M0 0 C0.66 0 1.32 0 2 0 C2.33 0.99 2.66 1.98 3 3 C1.3125 5.875 1.3125 5.875 -1 9 C-1.70125 9.94875 -2.4025 10.8975 -3.125 11.875 C-3.74375 12.57625 -4.3625 13.2775 -5 14 C-5.66 14 -6.32 14 -7 14 C-7 16.97 -7 19.94 -7 23 C-4.36 23 -1.72 23 1 23 C1 23.33 1 23.66 1 24 C-0.69769531 24.19916016 -0.69769531 24.19916016 -2.4296875 24.40234375 C-3.91148179 24.5805342 -5.39325136 24.75893029 -6.875 24.9375 C-7.62136719 25.02451172 -8.36773437 25.11152344 -9.13671875 25.20117188 C-13.1953231 25.63326063 -13.1953231 25.63326063 -17 27 C-19.3329866 27.04022391 -21.66706666 27.04320247 -24 27 C-24 26.34 -24 25.68 -24 25 C-24.66 24.67 -25.32 24.34 -26 24 C-25.16597656 23.5153125 -24.33195312 23.030625 -23.47265625 22.53125 C-14.70696341 17.30998966 -5.722839 11.70866804 0 3 C0 2.01 0 1.02 0 0 Z " fill="#9DDD76" transform="translate(125,194)"/>
<path d="M0 0 C2.56695636 0.39491636 4.67123994 0.83561997 7 2 C6.67 2.99 6.34 3.98 6 5 C3.55078125 6.17578125 3.55078125 6.17578125 0.3125 7.3125 C-5.92945669 9.57228123 -11.95264064 12.13643398 -18.00390625 14.86328125 C-21 16 -21 16 -25 16 C-24.765625 13.65625 -24.765625 13.65625 -24 11 C-22.171875 9.59375 -22.171875 9.59375 -19.75 8.5 C-18.85925781 8.09265625 -17.96851563 7.6853125 -17.05078125 7.265625 C-12.59910062 5.41883303 -8.11167119 3.68294994 -3.58984375 2.015625 C-1.1084137 1.24179423 -1.1084137 1.24179423 0 0 Z " fill="#72C85D" transform="translate(174,233)"/>
<path d="M0 0 C2.000625 0.020625 4.00125 0.04125 6.0625 0.0625 C6.0625 6.0025 6.0625 11.9425 6.0625 18.0625 C5.7325 18.0625 5.4025 18.0625 5.0625 18.0625 C5.0625 12.4525 5.0625 6.8425 5.0625 1.0625 C-0.35258952 1.47904535 -5.62551411 1.91811719 -10.9375 3.0625 C-16.23636301 4.2040557 -21.53749355 4.67238547 -26.9375 5.0625 C-26.9375 5.7225 -26.9375 6.3825 -26.9375 7.0625 C-28.9175 7.0625 -30.8975 7.0625 -32.9375 7.0625 C-32.2775 8.3825 -31.6175 9.7025 -30.9375 11.0625 C-31.9275 11.0625 -32.9175 11.0625 -33.9375 11.0625 C-33.9375 9.7425 -33.9375 8.4225 -33.9375 7.0625 C-37.4025 8.5475 -37.4025 8.5475 -40.9375 10.0625 C-40.9375 12.0425 -40.9375 14.0225 -40.9375 16.0625 C-42.2575 16.0625 -43.5775 16.0625 -44.9375 16.0625 C-45.5975 14.0825 -46.2575 12.1025 -46.9375 10.0625 C-51.69375818 11.30867267 -51.69375818 11.30867267 -56.1875 13.25 C-57.9375 14.0625 -57.9375 14.0625 -60.9375 13.0625 C-61.185 13.660625 -61.4325 14.25875 -61.6875 14.875 C-63.10120012 17.34897521 -64.58805383 18.49620255 -66.9375 20.0625 C-65.74108639 16.65732279 -64.76366018 14.33725154 -61.9375 12.0625 C-52.61156609 8.53154683 -42.49692909 6.7845794 -32.73950195 4.82495117 C-30.47678331 4.3703354 -28.21586229 3.90749065 -25.95507812 3.44335938 C-24.49228356 3.14536141 -23.02939618 2.84781859 -21.56640625 2.55078125 C-20.90274551 2.4153743 -20.23908478 2.27996735 -19.55531311 2.14045715 C-12.99251328 0.82623183 -6.69903699 -0.06906224 0 0 Z " fill="#59834D" transform="translate(124.9375,222.9375)"/>
<path d="M0 0 C3.82303833 0.76460767 6.38393238 1.47614782 9.8125 3.0625 C10.99779297 3.60583984 10.99779297 3.60583984 12.20703125 4.16015625 C12.79871094 4.43730469 13.39039063 4.71445313 14 5 C14 7.64 14 10.28 14 13 C9.38 13.33 4.76 13.66 0 14 C0 9.38 0 4.76 0 0 Z " fill="#445C42" transform="translate(152,200)"/>
<path d="M0 0 C0 4.29 0 8.58 0 13 C-4.62 13 -9.24 13 -14 13 C-14 10.36 -14 7.72 -14 5 C-12.23244474 4.15973604 -10.46082737 3.32801278 -8.6875 2.5 C-7.70136719 2.0359375 -6.71523437 1.571875 -5.69921875 1.09375 C-3 0 -3 0 0 0 Z " fill="#3C4C3A" transform="translate(235,200)"/>
<path d="M0 0 C-3.37940142 7.7243461 -10.24043697 14.74098353 -18 18 C-18.99 17.67 -19.98 17.34 -21 17 C-20.79375 16.38125 -20.5875 15.7625 -20.375 15.125 C-20.25125 14.42375 -20.1275 13.7225 -20 13 C-20.66 12.34 -21.32 11.68 -22 11 C-18.7121022 9.15984502 -15.41908674 7.32904953 -12.125 5.5 C-11.18785156 4.97535156 -10.25070313 4.45070312 -9.28515625 3.91015625 C-8.38925781 3.41386719 -7.49335937 2.91757813 -6.5703125 2.40625 C-5.74289551 1.94541016 -4.91547852 1.48457031 -4.06298828 1.00976562 C-2 0 -2 0 0 0 Z " fill="#54754A" transform="translate(126,195)"/>
<path d="M0 0 C5.09032841 -0.02468084 10.18062215 -0.04285082 15.27099609 -0.05493164 C17.00342414 -0.05996682 18.73584792 -0.06679532 20.46826172 -0.07543945 C22.95541433 -0.08754065 25.44251087 -0.09323638 27.9296875 -0.09765625 C28.70682098 -0.10281754 29.48395447 -0.10797882 30.28463745 -0.11329651 C35.77225659 -0.11387171 35.77225659 -0.11387171 38 1 C39.32 1 40.64 1 42 1 C42 3.31 42 5.62 42 8 C37.71 8 33.42 8 29 8 C28.67 6.68 28.34 5.36 28 4 C28.33 3.67 28.66 3.34 29 3 C28.22809326 2.98018066 27.45618652 2.96036133 26.66088867 2.93994141 C23.16941042 2.84478857 19.67853848 2.73506953 16.1875 2.625 C14.36508789 2.57859375 14.36508789 2.57859375 12.50585938 2.53125 C11.34248047 2.49257812 10.17910156 2.45390625 8.98046875 2.4140625 C7.37014771 2.36693115 7.37014771 2.36693115 5.72729492 2.31884766 C3 2 3 2 0 0 Z " fill="#5A824D" transform="translate(177,205)"/>
<path d="M0 0 C0.639375 0.33 1.27875 0.66 1.9375 1 C6.01236841 2.33056928 9.75190425 2.16659199 14 2 C14 1.34 14 0.68 14 0 C15.32 0 16.64 0 18 0 C18 1.32 18 2.64 18 4 C17.34 4 16.68 4 16 4 C16.33 4.99 16.66 5.98 17 7 C16.34 7 15.68 7 15 7 C15 7.66 15 8.32 15 9 C12.68682039 8.69257097 10.37446648 8.37892298 8.0625 8.0625 C6.77472656 7.88847656 5.48695313 7.71445313 4.16015625 7.53515625 C1 7 1 7 0 6 C-0.04080783 4.00041636 -0.04254356 1.99954746 0 0 Z " fill="#8AD269" transform="translate(272,212)"/>
<path d="M0 0 C0.99 0 1.98 0 3 0 C2.67 1.32 2.34 2.64 2 4 C2.66644531 4.21914062 3.33289063 4.43828125 4.01953125 4.6640625 C11.11802003 7.10633976 17.51232501 10.23539169 24 14 C20.60270933 15.17833956 18.98480248 14.85667526 15.75 13.375 C11.03544669 11.35043206 6.27352616 9.75465565 1.375 8.25 C0.65151367 8.02747559 -0.07197266 7.80495117 -0.81738281 7.57568359 C-2.54394995 7.0472695 -4.27183553 6.52316641 -6 6 C-5.34 5.67 -4.68 5.34 -4 5 C-4.66 3.68 -5.32 2.36 -6 1 C-4.02 1.66 -2.04 2.32 0 3 C0 2.01 0 1.02 0 0 Z " fill="#8DDE63" transform="translate(320,225)"/>
<path d="M0 0 C0.99 0 1.98 0 3 0 C4.0625 2.5 4.0625 2.5 4 6 C1.29520287 9.04289677 -1.77661619 11.5243407 -5 14 C-5.33 13.01 -5.66 12.02 -6 11 C-6.33 10.67 -6.66 10.34 -7 10 C-7.99 10 -8.98 10 -10 10 C-10 8.68 -10 7.36 -10 6 C-9.34 6 -8.68 6 -8 6 C-8 5.01 -8 4.02 -8 3 C-6.576875 2.814375 -6.576875 2.814375 -5.125 2.625 C-1.91332809 2.28312823 -1.91332809 2.28312823 0 0 Z " fill="#3D6138" transform="translate(70,215)"/>
<path d="M0 0 C3.34653436 1.18747993 6.31383119 2.72609192 9.375 4.5 C13.21151685 6.67852465 16.71376647 7.99683896 21 9 C19.66666667 9.33333333 18.33333333 9.66666667 17 10 C16.38125 10.2165625 15.7625 10.433125 15.125 10.65625 C11.2314881 11.28608281 8.34365057 8.83900781 5 7 C5 11.62 5 16.24 5 21 C4.34 21 3.68 21 3 21 C2.96261719 19.86820313 2.92523438 18.73640625 2.88671875 17.5703125 C2.82106918 16.08850795 2.75462149 14.60673861 2.6875 13.125 C2.66494141 12.37863281 2.64238281 11.63226563 2.61914062 10.86328125 C2.52188055 8.900396 2.26957706 6.94671678 2 5 C1.01 4.34 0.02 3.68 -1 3 C-0.67 2.01 -0.34 1.02 0 0 Z " fill="#99DD75" transform="translate(147,193)"/>
<path d="M0 0 C0.66 0.33 1.32 0.66 2 1 C1.34 1.66 0.68 2.32 0 3 C-0.28875 4.093125 -0.5775 5.18625 -0.875 6.3125 C-2.47564717 10.30992775 -5.09117117 11.33154387 -8.9375 13 C-12.86893026 14.55893145 -14.97558935 15.2105116 -19 14 C-17.44539063 12.86111328 -17.44539063 12.86111328 -15.859375 11.69921875 C-14.48957483 10.6953241 -13.11978363 9.69141721 -11.75 8.6875 C-11.06808594 8.18798828 -10.38617188 7.68847656 -9.68359375 7.17382812 C-6.44336389 4.79870818 -3.20612744 2.42112201 0 0 Z " fill="#4A6A42" transform="translate(94,212)"/>
<path d="M0 0 C2.31 0.66 4.62 1.32 7 2 C7 2.99 7 3.98 7 5 C6.01 5 5.02 5 4 5 C5 7.5 5 7.5 9 9 C5.37 11.31 1.74 13.62 -2 16 C-2 11.08910725 -1.75736043 7.13604064 1 3 C0.67 2.01 0.34 1.02 0 0 Z " fill="#355933" transform="translate(81,201)"/>
<path d="M0 0 C4.62 0.66 9.24 1.32 14 2 C14.33 3.32 14.66 4.64 15 6 C14 7 14 7 10.83984375 7.09765625 C8.90818359 7.08025391 8.90818359 7.08025391 6.9375 7.0625 C5.64714844 7.05347656 4.35679687 7.04445312 3.02734375 7.03515625 C2.02832031 7.02355469 1.02929688 7.01195312 0 7 C0 4.69 0 2.38 0 0 Z " fill="#4A6344" transform="translate(168,206)"/>
<path d="M0 0 C2.56976865 3.18651312 5.10453855 6.39944077 7.625 9.625 C8.21539062 10.38039062 8.80578125 11.13578125 9.4140625 11.9140625 C10.66952015 13.56532945 11.8493672 15.27405081 13 17 C12.34 17.66 11.68 18.32 11 19 C9.35175927 17.04364894 7.70633688 15.08504561 6.0625 13.125 C5.59392578 12.56941406 5.12535156 12.01382813 4.64257812 11.44140625 C1.11328125 7.2265625 1.11328125 7.2265625 0 5 C-0.33 11.93 -0.66 18.86 -1 26 C-1.33 26 -1.66 26 -2 26 C-2 18.08 -2 10.16 -2 2 C-1.34 2 -0.68 2 0 2 C0 1.34 0 0.68 0 0 Z " fill="#87C669" transform="translate(258,190)"/>
<path d="M0 0 C5.94 0 11.88 0 18 0 C18 1.32 18 2.64 18 4 C11.73 4 5.46 4 -1 4 C-0.67 2.68 -0.34 1.36 0 0 Z " fill="#547848" transform="translate(185,209)"/>
<path d="M0 0 C0.33 0 0.66 0 1 0 C1 10.89 1 21.78 1 33 C0.67 33 0.34 33 0 33 C-0.33 30.36 -0.66 27.72 -1 25 C-1.33 25 -1.66 25 -2 25 C-2.05421223 21.95809137 -2.09377548 18.91716001 -2.125 15.875 C-2.15013672 14.59109375 -2.15013672 14.59109375 -2.17578125 13.28125 C-2.21306681 8.43412707 -1.89580643 4.55292095 0 0 Z " fill="#346634" transform="translate(2,183)"/>
<path d="M0 0 C0.33 0 0.66 0 1 0 C1.50693672 4.01999019 2.0043039 8.04110954 2.5 12.0625 C2.64308594 13.19623047 2.78617187 14.32996094 2.93359375 15.49804688 C3.61191318 21.03765554 4.19443782 26.41801428 4 32 C3.01 32.495 3.01 32.495 2 33 C1.48785549 29.71010715 0.99259936 26.41787138 0.5 23.125 C0.35691406 22.2071875 0.21382813 21.289375 0.06640625 20.34375 C-2.27059273 4.54118546 -2.27059273 4.54118546 0 0 Z " fill="#1B3420" transform="translate(1,206)"/>
<path d="M0 0 C0.33 1.32 0.66 2.64 1 4 C-0.41225926 4.67595315 -1.83002905 5.34040059 -3.25 6 C-4.43335938 6.556875 -4.43335938 6.556875 -5.640625 7.125 C-8 8 -8 8 -12 8 C-11.875 5.6875 -11.875 5.6875 -11 3 C-7.28337238 0.55040452 -4.43633875 -0.39144165 0 0 Z " fill="#7CD263" transform="translate(161,241)"/>
<path d="M0 0 C0.66 0.33 1.32 0.66 2 1 C1.67 1.66 1.34 2.32 1 3 C0.92818179 5.71760108 0.90700494 8.40859388 0.9375 11.125 C0.94201172 11.87910156 0.94652344 12.63320312 0.95117188 13.41015625 C0.96296501 15.27347127 0.98090058 17.13674555 1 19 C-0.98 19 -2.96 19 -5 19 C-5 18.67 -5 18.34 -5 18 C-3.35 18 -1.7 18 0 18 C0 13.71 0 9.42 0 5 C-1.753125 5.70125 -3.50625 6.4025 -5.3125 7.125 C-8.30078125 8.3203125 -8.30078125 8.3203125 -11 9 C-11.99 8.34 -12.98 7.68 -14 7 C-11.71296692 5.80274117 -9.42115138 4.61702982 -7.125 3.4375 C-6.14853516 2.92413086 -6.14853516 2.92413086 -5.15234375 2.40039062 C-3.46470143 1.53917109 -1.73420407 0.76313297 0 0 Z " fill="#77AE5D" transform="translate(235,195)"/>
<path d="M0 0 C0.66 0.33 1.32 0.66 2 1 C2.29136943 9.07740804 1.95156113 17.12147544 0 25 C-0.66 25.33 -1.32 25.66 -2 26 C-2.33165588 17.137418 -1.3213258 8.7419859 0 0 Z " fill="#1E3621" transform="translate(2,163)"/>
<path d="M0 0 C0.66 0 1.32 0 2 0 C2.33 1.98 2.66 3.96 3 6 C-2.17578125 9.22265625 -2.17578125 9.22265625 -4 10 C-4.99 9.67 -5.98 9.34 -7 9 C-6.79375 8.38125 -6.5875 7.7625 -6.375 7.125 C-6.25125 6.42375 -6.1275 5.7225 -6 5 C-6.66 4.34 -7.32 3.68 -8 3 C-6.865625 2.690625 -5.73125 2.38125 -4.5625 2.0625 C-1.21224901 1.37075469 -1.21224901 1.37075469 0 0 Z " fill="#4B6C45" transform="translate(112,203)"/>
<path d="M0 0 C0.33 0.99 0.66 1.98 1 3 C-0.98 4.98 -2.96 6.96 -5 9 C-4.34 9.33 -3.68 9.66 -3 10 C-3 10.66 -3 11.32 -3 12 C-2.34 12 -1.68 12 -1 12 C-1 12.99 -1 13.98 -1 15 C-1.99 15 -2.98 15 -4 15 C-4 14.34 -4 13.68 -4 13 C-4.99 13 -5.98 13 -7 13 C-7 12.34 -7 11.68 -7 11 C-8.98 12.32 -10.96 13.64 -13 15 C-13.66 14.67 -14.32 14.34 -15 14 C-14.16855469 13.24074219 -13.33710938 12.48148438 -12.48046875 11.69921875 C-11.38277925 10.69534886 -10.28512484 9.6914406 -9.1875 8.6875 C-8.64029297 8.18798828 -8.09308594 7.68847656 -7.52929688 7.17382812 C-4.96878163 4.83056872 -2.42060466 2.48855146 0 0 Z " fill="#425F3D" transform="translate(310,179)"/>
<path d="M0 0 C0 1.98 0 3.96 0 6 C-4.29 6.66 -8.58 7.32 -13 8 C-10.61318325 5.61318325 -8.7414492 4.05776184 -5.9375 2.3125 C-5.24527344 1.87550781 -4.55304688 1.43851563 -3.83984375 0.98828125 C-2 0 -2 0 0 0 Z " fill="#4F6E46" transform="translate(116,212)"/>
<path d="M0 0 C0.66 0.33 1.32 0.66 2 1 C1.25339288 6.72398793 0.17122859 12.34853777 -1 18 C-1.33 18 -1.66 18 -2 18 C-2.25034126 15.9399629 -2.47443346 13.87672534 -2.6875 11.8125 C-2.81511719 10.66394531 -2.94273438 9.51539063 -3.07421875 8.33203125 C-2.99142924 4.61521817 -2.16836289 2.95989896 0 0 Z " fill="#31562E" transform="translate(6,153)"/>
<path d="M0 0 C4.30764815 1.56641751 8.06171464 3.68336156 12 6 C12 6.33 12 6.66 12 7 C8.04 6.67 4.08 6.34 0 6 C0 4.02 0 2.04 0 0 Z " fill="#4C6343" transform="translate(272,212)"/>
<path d="M0 0 C-3.7935871 3.21880117 -7.65829477 5.6163187 -12 8 C-11.34 5.69 -10.68 3.38 -10 1 C-6.61981469 -0.04005702 -3.5219721 -0.08004482 0 0 Z " fill="#4C7643" transform="translate(90,209)"/>
<path d="M0 0 C7.26 0 14.52 0 22 0 C21.01 0.66 20.02 1.32 19 2 C17.80767387 4.05003955 17.80767387 4.05003955 17 6 C16.67 4.68 16.34 3.36 16 2 C10.72 1.67 5.44 1.34 0 1 C0 0.67 0 0.34 0 0 Z " fill="#9AE377" transform="translate(187,207)"/>
<path d="M0 0 C0.33 1.65 0.66 3.3 1 5 C0.278125 4.95875 -0.44375 4.9175 -1.1875 4.875 C-4.0365789 4.84491096 -4.0365789 4.84491096 -6.625 6.0625 C-9 7 -9 7 -12 6 C-10.37829621 4.99466333 -8.75252763 3.99588093 -7.125 3 C-5.76761719 2.1646875 -5.76761719 2.1646875 -4.3828125 1.3125 C-2 0 -2 0 0 0 Z " fill="#7AC45F" transform="translate(53,236)"/>
<path d="M0 0 C1.32 0 2.64 0 4 0 C4 1.32 4 2.64 4 4 C5.32 4.66 6.64 5.32 8 6 C6.68 6 5.36 6 4 6 C4 6.66 4 7.32 4 8 C1.03 7.505 1.03 7.505 -2 7 C-1.01 6.67 -0.02 6.34 1 6 C0.67 4.02 0.34 2.04 0 0 Z " fill="#558045" transform="translate(296,214)"/>
<path d="M0 0 C8.57142857 0.85714286 8.57142857 0.85714286 12 3 C12 3.66 12 4.32 12 5 C10.56163249 4.88541307 9.12429034 4.75790884 7.6875 4.625 C6.88699219 4.55539063 6.08648437 4.48578125 5.26171875 4.4140625 C3 4 3 4 0 2 C0 1.34 0 0.68 0 0 Z " fill="#85C668" transform="translate(168,203)"/>
<path d="M0 0 C4.455 0.99 4.455 0.99 9 2 C8.01 2.495 8.01 2.495 7 3 C7 5.64 7 8.28 7 11 C6.34 11 5.68 11 5 11 C5 8.36 5 5.72 5 3 C2.525 2.01 2.525 2.01 0 1 C0 0.67 0 0.34 0 0 Z " fill="#A5E77E" transform="translate(161,202)"/>
<path d="M0 0 C6.08233706 0.67581523 12.01314152 1.73638028 18 3 C14.56753718 3.93948875 11.56593195 4.07429025 8 4 C6.68 4 5.36 4 4 4 C3.67 3.34 3.34 2.68 3 2 C2.01 1.34 1.02 0.68 0 0 Z " fill="#516E48" transform="translate(299,228)"/>
<path d="M0 0 C4.49797113 1.68673918 8.72886302 3.81673892 13 6 C9.30962722 7.37095624 7.29116165 6.60010967 3.75 5.0625 C2.85796875 4.68222656 1.9659375 4.30195313 1.046875 3.91015625 C0.37140625 3.60980469 -0.3040625 3.30945313 -1 3 C-0.67 2.01 -0.34 1.02 0 0 Z " fill="#6DAA4F" transform="translate(331,233)"/>
<path d="M0 0 C2.97 1.98 2.97 1.98 6 4 C5.67 4.99 5.34 5.98 5 7 C2.0625 6.625 2.0625 6.625 -1 6 C-1.33 5.34 -1.66 4.68 -2 4 C-1.34 3.34 -0.68 2.68 0 2 C0 1.34 0 0.68 0 0 Z " fill="#80D569" transform="translate(56,258)"/>
<path d="M0 0 C0.66 0 1.32 0 2 0 C2 7.26 2 14.52 2 22 C1.67 22 1.34 22 1 22 C1 15.73 1 9.46 1 3 C0.34 3 -0.32 3 -1 3 C-0.67 2.01 -0.34 1.02 0 0 Z " fill="#659854" transform="translate(129,194)"/>
<path d="M0 0 C0.66 0.33 1.32 0.66 2 1 C1.35546875 1.50015625 0.7109375 2.0003125 0.046875 2.515625 C-2.65123945 5.79043567 -2.66534331 8.67878271 -2.75 12.75 C-2.77964844 13.44738281 -2.80929688 14.14476562 -2.83984375 14.86328125 C-2.91018458 16.57490813 -2.95739946 18.28745815 -3 20 C-3.33 20 -3.66 20 -4 20 C-4.10787818 17.22813012 -4.18723327 14.46044463 -4.25 11.6875 C-4.28351563 10.90181641 -4.31703125 10.11613281 -4.3515625 9.30664062 C-4.38855392 7.13339453 -4.38367634 5.14030099 -4 3 C-1.984375 0.95703125 -1.984375 0.95703125 0 0 Z " fill="#485F42" transform="translate(242,194)"/>
<path d="M0 0 C0.99 0 1.98 0 3 0 C2.34 1.32 1.68 2.64 1 4 C0.34 4 -0.32 4 -1 4 C-1 4.66 -1 5.32 -1 6 C-2.65 6 -4.3 6 -6 6 C-5.34 5.67 -4.68 5.34 -4 5 C-4.66 3.68 -5.32 2.36 -6 1 C-4.02 1.66 -2.04 2.32 0 3 C0 2.01 0 1.02 0 0 Z " fill="#86C861" transform="translate(320,225)"/>
<path d="M0 0 C1.32 0 2.64 0 4 0 C4 1.32 4 2.64 4 4 C1.6875 4.6875 1.6875 4.6875 -1 5 C-2.8125 3.5625 -2.8125 3.5625 -4 2 C-2.68 2 -1.36 2 0 2 C0 1.34 0 0.68 0 0 Z " fill="#5C844C" transform="translate(286,212)"/>
<path d="M0 0 C0.66 0.33 1.32 0.66 2 1 C-3.875 5 -3.875 5 -5 5 C-5.33 6.98 -5.66 8.96 -6 11 C-6.33 11 -6.66 11 -7 11 C-7 8.36 -7 5.72 -7 3 C-4.69631264 1.93347808 -2.35981813 0.93578995 0 0 Z " fill="#536B4A" transform="translate(228,202)"/>
<path d="M0 0 C0.66 0.99 1.32 1.98 2 3 C1.34 3 0.68 3 0 3 C-0.33 4.65 -0.66 6.3 -1 8 C-1.99 8.33 -2.98 8.66 -4 9 C-3.6875 5.625 -3.6875 5.625 -3 2 C-2.01 1.34 -1.02 0.68 0 0 Z " fill="#375433" transform="translate(64,223)"/>
<path d="M0 0 C0.99 0 1.98 0 3 0 C3 1.65 3 3.3 3 5 C1.35 5 -0.3 5 -2 5 C-2 2 -2 2 0 0 Z " fill="#354735" transform="translate(215,207)"/>
<path d="M0 0 C0.99 0 1.98 0 3 0 C2.67 1.98 2.34 3.96 2 6 C0.35 6 -1.3 6 -3 6 C-2.67 5.01 -2.34 4.02 -2 3 C-1.34 3 -0.68 3 0 3 C0 2.01 0 1.02 0 0 Z " fill="#49683B" transform="translate(47,202)"/>
<path d="M0 0 C3.37503669 1.1858237 5.64722731 2.27573689 8 5 C2.375 5.25 2.375 5.25 -1 3 C-0.67 2.01 -0.34 1.02 0 0 Z " fill="#82B967" transform="translate(147,193)"/>
<path d="M0 0 C0.66 0 1.32 0 2 0 C2 1.98 2 3.96 2 6 C0.02 6 -1.96 6 -4 6 C-2.7260411 3.96166576 -1.38938077 1.96147874 0 0 Z " fill="#496543" transform="translate(114,212)"/>
<path d="M0 0 C2.31 0.66 4.62 1.32 7 2 C7 2.99 7 3.98 7 5 C4.625 4.75 4.625 4.75 2 4 C0.6875 1.9375 0.6875 1.9375 0 0 Z " fill="#4F7A44" transform="translate(81,201)"/>
<path d="M0 0 C0.66 0.33 1.32 0.66 2 1 C0.9024777 3.99324263 0.32317108 4.84610901 -2.625 6.25 C-3.40875 6.4975 -4.1925 6.745 -5 7 C-5.66 6.34 -6.32 5.68 -7 5 C-6.030625 4.360625 -5.06125 3.72125 -4.0625 3.0625 C-1.23963731 1.3034741 -1.23963731 1.3034741 0 0 Z " fill="#86C766" transform="translate(244,189)"/>
<path d="M0 0 C0.99 0 1.98 0 3 0 C3 0.99 3 1.98 3 3 C2.34 3 1.68 3 1 3 C1 4.32 1 5.64 1 7 C0.01 7 -0.98 7 -2 7 C-2 5.68 -2 4.36 -2 3 C-1.34 3 -0.68 3 0 3 C0 2.01 0 1.02 0 0 Z " fill="#76AD59" transform="translate(62,218)"/>
<path d="M0 0 C0.66 0.33 1.32 0.66 2 1 C1.67 1.99 1.34 2.98 1 4 C4.465 3.505 4.465 3.505 8 3 C6 5 6 5 2.375 5.125 C1.26125 5.08375 0.1475 5.0425 -1 5 C-1 4.34 -1 3.68 -1 3 C-1.66 2.67 -2.32 2.34 -3 2 C-2.01 1.34 -1.02 0.68 0 0 Z " fill="#84CA64" transform="translate(102,216)"/>
<path d="M0 0 C0.99 0 1.98 0 3 0 C3.33 1.98 3.66 3.96 4 6 C3.01 6.66 2.02 7.32 1 8 C0.67 5.36 0.34 2.72 0 0 Z " fill="#5E964A" transform="translate(70,215)"/>
<path d="M0 0 C-0.66 0 -1.32 0 -2 0 C-2 0.66 -2 1.32 -2 2 C-6.455 2.495 -6.455 2.495 -11 3 C-10.01 2.67 -9.02 2.34 -8 2 C-8 1.34 -8 0.68 -8 0 C-4.94736336 -0.98120464 -3.05263664 -0.98120464 0 0 Z " fill="#90D370" transform="translate(221,204)"/>
<path d="M0 0 C0.66 0.33 1.32 0.66 2 1 C1.34 1.66 0.68 2.32 0 3 C-0.6425235 5.06874034 -0.6425235 5.06874034 -1 7 C-1.99 7 -2.98 7 -4 7 C-4 6.34 -4 5.68 -4 5 C-4.66 4.67 -5.32 4.34 -6 4 C-4.02 2.68 -2.04 1.36 0 0 Z " fill="#5F8D50" transform="translate(94,212)"/>
<path d="M0 0 C4 4.625 4 4.625 4 8 C3.01 7.67 2.02 7.34 1 7 C0.6278958 5.67696283 0.29369827 4.34262065 0 3 C-0.66 2.67 -1.32 2.34 -2 2 C-1.34 2 -0.68 2 0 2 C0 1.34 0 0.68 0 0 Z " fill="#8DD267" transform="translate(258,190)"/>
<path d="M0 0 C0.625 1.8125 0.625 1.8125 1 4 C0.01 5.485 0.01 5.485 -1 7 C-1.38499891 8.65549531 -1.72793135 10.3222433 -2 12 C-2.33 12 -2.66 12 -3 12 C-3.2954439 6.97745369 -2.98514628 4.10457614 0 0 Z " fill="#507945" transform="translate(57,243)"/>
<path d="M0 0 C3.3 0.99 6.6 1.98 10 3 C8.68 3.33 7.36 3.66 6 4 C5.29875 4.226875 4.5975 4.45375 3.875 4.6875 C3.25625 4.790625 2.6375 4.89375 2 5 C1.34 4.34 0.68 3.68 0 3 C0 2.01 0 1.02 0 0 Z " fill="#79A863" transform="translate(158,199)"/>
<path d="M0 0 C1.65 1.65 3.3 3.3 5 5 C4.67 5.66 4.34 6.32 4 7 C2.68 6.67 1.36 6.34 0 6 C0 4.02 0 2.04 0 0 Z " fill="#4B6346" transform="translate(257,194)"/>
<path d="M0 0 C0.99 0 1.98 0 3 0 C3.33 0.99 3.66 1.98 4 3 C6.01508358 3.73323796 6.01508358 3.73323796 8 4 C7 5 7 5 4.4375 5.0625 C3.2309375 5.0315625 3.2309375 5.0315625 2 5 C2 4.34 2 3.68 2 3 C1.34 3 0.68 3 0 3 C0 2.01 0 1.02 0 0 Z " fill="#3B5638" transform="translate(38,239)"/>
<path d="M0 0 C1.65 0 3.3 0 5 0 C4.34 1.32 3.68 2.64 3 4 C2.34 3.67 1.68 3.34 1 3 C-0.66194453 2.64386903 -2.328451 2.30791692 -4 2 C-3.34 1.67 -2.68 1.34 -2 1 C-1.34 1.33 -0.68 1.66 0 2 C0 1.34 0 0.68 0 0 Z " fill="#83C862" transform="translate(300,220)"/>
<path d="M0 0 C0.66 0.33 1.32 0.66 2 1 C0.02 3.31 -1.96 5.62 -4 8 C-4 4.09161134 -2.49432124 2.88405893 0 0 Z " fill="#4C7242" transform="translate(63,235)"/>
<path d="M0 0 C0.66 0.33 1.32 0.66 2 1 C1.67 1.99 1.34 2.98 1 4 C-1.5625 5.1875 -1.5625 5.1875 -4 6 C-4.33 5.01 -4.66 4.02 -5 3 C-2.625 1.4375 -2.625 1.4375 0 0 Z " fill="#85C465" transform="translate(235,195)"/>
</svg>
